<svg width="290" height="210" viewBox="0 0 290 210" fill="none" xmlns="http://www.w3.org/2000/svg">
<rect width="290" height="210" fill="#FEFEFE"/>
<path d="M145.576 55H145.082C132.065 55 119.581 60.2165 110.376 69.5021C101.171 78.7876 95.9998 91.3814 95.9998 104.513V144.571C95.9998 150.068 100.417 154.524 105.866 154.524H145.576C158.593 154.524 171.077 149.307 180.282 140.022C189.487 130.736 194.658 118.142 194.658 105.011V104.513C194.658 91.3814 189.487 78.7876 180.282 69.5021C171.077 60.2165 158.593 55 145.576 55Z" fill="#035259"/>
<path d="M144.653 135.458C143.86 135.458 143.054 135.425 142.267 135.352C136.319 134.831 131.402 132.711 127.978 129.159C127.322 128.48 126.853 127.642 126.619 126.727C126.384 125.813 126.392 124.853 126.64 123.943C126.889 123.032 127.37 122.201 128.037 121.532C128.703 120.863 129.533 120.379 130.443 120.127C130.902 120.003 131.376 119.941 131.851 119.942C133.391 119.942 134.713 120.774 135.896 121.804C138.196 123.784 140.78 125.257 144.488 125.257C146.47 125.257 148.519 124.92 149.828 124.042C150.69 123.521 151.402 122.785 151.895 121.907C152.387 121.028 152.643 120.037 152.637 119.031C152.637 116.812 151.315 113.973 145.565 111.953C145.565 111.953 141.368 110.381 138.777 109.311C136.669 108.426 134.673 107.296 132.829 105.944C130.523 104.221 129.254 102.92 128.024 100.616C126.773 98.1324 126.238 95.3504 126.478 92.5805C126.713 89.2178 127.97 86.0069 130.08 83.3764C130.163 83.2713 130.279 83.1965 130.41 83.1635C130.54 83.1304 130.677 83.1409 130.801 83.1933C130.925 83.2457 131.028 83.3372 131.094 83.4538C131.161 83.5703 131.188 83.7055 131.17 83.8386C130.826 86.5204 131.165 89.2456 132.155 91.7617C133.318 94.3236 135.691 96.2911 138.103 97.7041C140.222 98.9188 142.456 99.9207 144.772 100.695C147.488 101.54 150.156 102.534 152.762 103.673C156.728 105.508 159.596 107.806 161.731 110.936C163.64 113.803 164.412 117.276 163.899 120.681C163.723 122.873 163.067 125 161.977 126.911C160.888 128.822 159.391 130.471 157.594 131.741C154.183 134.124 149.597 135.458 144.653 135.458Z" fill="#F7F5EB"/>
<path d="M152.896 88.9412L147.377 86.9208C147.224 86.8574 147.1 86.7387 147.03 86.5882C146.96 86.4378 146.95 86.2665 147 86.1086C147.382 85.0431 147.97 84.0635 148.732 83.2259C149.493 82.3884 150.413 81.7096 151.438 81.2285C152.463 80.7474 153.574 80.4736 154.705 80.4227C155.836 80.3719 156.967 80.545 158.031 80.9322L163.55 82.9526C163.703 83.016 163.827 83.1347 163.897 83.2852C163.967 83.4356 163.977 83.6068 163.926 83.7647C163.545 84.8302 162.957 85.8099 162.195 86.6474C161.434 87.485 160.514 88.1638 159.489 88.6449C158.464 89.126 157.353 89.3998 156.222 89.4507C155.09 89.5015 153.96 89.3284 152.896 88.9412Z" fill="#F7F5EB"/>
<path d="M141.024 87.0862L134.19 88.9283C134.022 88.9729 133.843 88.9493 133.692 88.8628C133.541 88.7762 133.43 88.6337 133.384 88.4661C132.676 85.8274 133.043 83.0159 134.406 80.6473C135.769 78.2787 138.015 76.5461 140.654 75.8287L147.144 74.079C147.311 74.0364 147.488 74.061 147.638 74.1473C147.787 74.2337 147.897 74.3751 147.944 74.5412L148.036 74.8978C148.72 77.4429 148.365 80.1549 147.051 82.4395C145.737 84.7242 143.569 86.3951 141.024 87.0862Z" fill="#F7F5EB"/>
</svg>
