<svg width="290" height="210" viewBox="0 0 290 210" fill="none" xmlns="http://www.w3.org/2000/svg">
<rect width="290" height="210" fill="#035259"/>
<path d="M145.01 55H144.513C131.381 55 118.787 60.2165 109.502 69.5021C100.216 78.7876 94.9996 91.3814 94.9996 104.513V144.571C94.9996 150.068 99.4555 154.524 104.952 154.524H145.01C158.142 154.524 170.736 149.307 180.021 140.022C189.307 130.736 194.523 118.142 194.523 105.011V104.513C194.523 91.3814 189.307 78.7876 180.021 69.5021C170.736 60.2165 158.142 55 145.01 55Z" fill="#F7F5EB"/>
<path d="M144.173 135.616C143.376 135.616 142.566 135.583 141.776 135.51C135.798 134.986 130.856 132.856 127.416 129.286C126.756 128.604 126.285 127.762 126.05 126.843C125.814 125.924 125.821 124.959 126.071 124.044C126.321 123.129 126.805 122.294 127.475 121.622C128.145 120.949 128.978 120.463 129.893 120.209C130.354 120.084 130.83 120.022 131.308 120.023C132.855 120.023 134.184 120.859 135.373 121.894C137.684 123.885 140.281 125.365 144.007 125.365C146 125.365 148.059 125.026 149.374 124.144C150.241 123.62 150.956 122.881 151.451 121.998C151.946 121.115 152.203 120.119 152.197 119.107C152.197 116.878 150.868 114.025 145.09 111.994C145.09 111.994 140.872 110.415 138.269 109.34C136.15 108.45 134.143 107.315 132.291 105.956C129.973 104.224 128.697 102.917 127.462 100.601C126.205 98.1054 125.666 95.3095 125.908 92.5258C126.144 89.1464 127.407 85.9195 129.528 83.276C129.612 83.1704 129.728 83.0952 129.859 83.062C129.99 83.0288 130.128 83.0393 130.252 83.092C130.377 83.1447 130.48 83.2366 130.547 83.3537C130.614 83.4709 130.641 83.6067 130.624 83.7405C130.278 86.4356 130.618 89.1744 131.613 91.703C132.782 94.2776 135.167 96.255 137.591 97.6749C139.72 98.8957 141.965 99.9026 144.293 100.681C147.023 101.53 149.703 102.529 152.323 103.673C156.308 105.518 159.191 107.827 161.336 110.972C163.254 113.854 164.031 117.345 163.515 120.766C163.338 122.969 162.679 125.107 161.584 127.027C160.489 128.948 158.985 130.605 157.178 131.881C153.751 134.276 149.142 135.616 144.173 135.616Z" fill="#035259"/>
<path d="M152.457 88.8664L146.91 86.8359C146.756 86.7723 146.632 86.653 146.562 86.5017C146.491 86.3505 146.481 86.1785 146.532 86.0198C146.915 84.949 147.506 83.9644 148.272 83.1227C149.037 82.2811 149.961 81.5988 150.992 81.1154C152.022 80.6319 153.138 80.3567 154.275 80.3056C155.412 80.2545 156.548 80.4285 157.617 80.8176L163.163 82.848C163.318 82.9117 163.442 83.031 163.512 83.1823C163.582 83.3335 163.593 83.5055 163.542 83.6642C163.159 84.735 162.568 85.7196 161.802 86.5613C161.037 87.4029 160.113 88.0851 159.082 88.5686C158.052 89.0521 156.936 89.3273 155.799 89.3784C154.662 89.4295 153.526 89.2555 152.457 88.8664Z" fill="#035259"/>
<path d="M140.525 87.0025L133.657 88.8538C133.488 88.8986 133.308 88.8749 133.156 88.788C133.004 88.701 132.893 88.5578 132.846 88.3893C132.135 85.7375 132.504 82.912 133.874 80.5316C135.243 78.1513 137.501 76.41 140.153 75.6891L146.675 73.9307C146.843 73.8879 147.021 73.9125 147.172 73.9993C147.322 74.0861 147.432 74.2282 147.479 74.3952L147.572 74.7535C148.259 77.3112 147.903 80.0368 146.582 82.3328C145.261 84.6288 143.083 86.308 140.525 87.0025Z" fill="#035259"/>
</svg>
