<svg width="99" height="99" viewBox="0 0 99 99" fill="none" xmlns="http://www.w3.org/2000/svg">
<path d="M9.88339 59.4401C8.7577 59.669 7.88174 58.969 7.6812 57.9852C7.48066 56.9995 7.98391 56.0195 9.13608 55.783C10.205 55.5654 11.0242 56.2768 11.2248 57.2625C11.4083 58.163 10.922 59.2282 9.8815 59.442" fill="#F3EFE6"/>
<path d="M9.01115 39.8117C9.01493 39.8704 8.96953 39.876 8.88061 39.8912C8.54006 39.9177 8.12952 40.0198 7.66789 40.3169C7.25735 40.5798 6.9168 41.015 6.8014 41.6658C6.56302 43.009 7.86087 43.588 8.73682 43.745C9.54278 43.8869 10.1236 43.9758 10.8841 43.6447C11.8944 43.2115 12.1215 42.7555 12.2293 42.1463C12.3939 41.2136 12.1706 40.4152 11.6371 39.9706C11.5369 39.8798 11.5482 39.8098 11.5842 39.772L11.7828 39.5601C11.8206 39.509 11.8869 39.5506 11.9644 39.6074C12.7325 40.209 13.2169 41.3461 12.988 42.6326C12.7779 43.8207 12.2671 44.5604 11.7469 44.9501C10.9844 45.5442 9.90035 45.6577 8.99601 45.4988C8.1333 45.3456 7.34059 44.8839 6.75977 44.1253C6.39085 43.6523 6.08625 42.5777 6.26598 41.5598C6.41545 40.7123 6.78058 40.1352 6.98491 39.8931C7.07762 39.7777 7.09464 39.6793 7.02653 39.6528L6.87896 39.5828C6.83923 39.5601 6.81842 39.5128 6.84869 39.3444C6.89221 39.176 6.91491 39.1382 7.04167 39.159C7.19681 39.1874 8.55142 39.282 8.89196 39.3274C8.96574 39.3274 9.03385 39.352 9.01304 39.4655L9.00926 39.8155L9.01115 39.8117Z" fill="#F3EFE6"/>
<path d="M13.2527 30.3367C13.3151 30.2081 13.3151 30.1437 13.2111 30.0927L12.9538 29.9659C12.7721 29.8789 11.7524 29.4135 11.6105 29.3435C11.391 29.2375 11.1867 29.2962 11.1035 29.4646L10.9597 29.7616C10.9275 29.8259 10.8897 29.8391 10.8386 29.8146L10.5283 29.6632C10.464 29.631 10.4508 29.5932 10.481 29.5289C10.551 29.387 10.9786 28.6056 11.1754 28.2045C11.3759 27.7921 11.7146 26.9975 11.7656 26.8953C11.8167 26.7913 11.8621 26.7988 11.9643 26.848L12.2102 26.9672C12.2613 26.9918 12.2935 27.024 12.2367 27.1394L12.074 27.4743C11.9737 27.6805 12.0778 27.828 12.2329 27.9037C12.4259 27.9983 13.7238 28.6472 14.0208 28.791L14.3046 28.9291C14.5751 29.0616 16.1322 29.8032 16.2343 29.8543C16.7433 30.087 16.9116 30.0719 17.0441 29.8013L17.2333 29.4135C17.2579 29.3605 17.3033 29.3681 17.3562 29.3927L17.6533 29.5383C17.7176 29.5705 17.7308 29.6083 17.693 29.6859C17.6362 29.8013 17.2768 30.4427 16.9987 31.0102C16.7906 31.4359 16.4519 32.2286 16.3516 32.4367C16.3081 32.5276 16.257 32.5332 16.1908 32.503L15.8938 32.3573C15.8427 32.3308 15.8295 32.293 15.8597 32.2286L16.0678 31.803C16.1624 31.61 16.0262 31.4946 15.7424 31.3565C15.5608 31.2675 14.3481 30.6451 14.1684 30.5562L13.9092 30.4294C13.8203 30.3859 13.7805 30.4294 13.7124 30.5732L12.5224 33.0138C12.4713 33.1178 12.4713 33.1481 12.5356 33.1822L12.6511 33.2389C12.8705 33.3468 14.1419 33.9503 14.3746 34.0638C14.7813 34.2454 14.9024 34.1924 14.9913 34.0127L15.1427 33.7024C15.1673 33.6514 15.2051 33.6381 15.2713 33.6684L15.5684 33.8141C15.6195 33.8387 15.6459 33.8841 15.6195 33.9351C15.5438 34.0903 15.1522 34.7941 14.9516 35.2084C14.7435 35.6341 14.3727 36.493 14.2857 36.6727C14.2535 36.7371 14.2157 36.7503 14.1381 36.7125L13.8411 36.5687C13.7767 36.5365 13.7767 36.5044 13.8146 36.4268L13.9848 36.0787C14.1551 35.7306 13.9546 35.6171 13.703 35.477C13.5421 35.3825 11.9473 34.5878 11.741 34.4876L11.3797 34.3116C10.8632 34.06 9.84345 33.5946 9.72805 33.5378C9.35345 33.3562 9.16804 33.4413 9.05452 33.6722L8.87858 34.0335C8.84074 34.1111 8.8029 34.1243 8.73858 34.0922L8.45479 33.9541C8.37722 33.9162 8.3583 33.8916 8.40181 33.8008C8.47182 33.6589 8.91831 32.8378 9.13209 32.3989C9.3648 31.9203 9.68453 31.1673 9.75453 31.0235C9.79237 30.9459 9.83021 30.9327 9.96075 30.9951L10.1935 31.1086C10.2578 31.1408 10.2767 31.1654 10.2332 31.2562L10.0951 31.54C9.98724 31.7594 10.0667 31.9581 10.2483 32.047C10.3637 32.1038 11.4289 32.6392 11.7921 32.8151L11.8962 32.8662C11.9605 32.8965 12.0116 32.8908 12.0494 32.8132L13.2584 30.3348L13.2527 30.3367Z" fill="#F3EFE6"/>
<path d="M20.2474 21.8177C20.0601 21.7231 18.4009 20.8963 18.2363 20.8206C18.102 20.7544 18.0395 20.7374 18.0112 20.7677C17.9714 20.8093 17.9941 20.8698 18.0395 20.9909C18.0944 21.1006 19.0025 22.9547 19.0593 23.1042L20.2474 21.8177ZM19.2825 23.6036C19.3601 23.7739 19.9031 24.8807 19.9901 25.0188C20.1528 25.2666 20.3382 25.3404 20.5331 25.1285L20.7279 24.9185C20.7771 24.8655 20.8282 24.8731 20.8698 24.9128L21.112 25.138C21.1536 25.1777 21.1763 25.2174 21.1271 25.2704C21.0496 25.3556 20.5009 25.8853 20.3458 26.0537C20.1604 26.2542 19.7044 26.8104 19.6174 26.905C19.5777 26.9466 19.5266 26.8993 19.4736 26.8502L19.2617 26.6553C19.2201 26.6156 19.2069 26.5664 19.2466 26.5229L19.3639 26.3961C19.4812 26.2693 19.5512 26.0026 19.5323 25.7888C19.5152 25.6374 18.7755 23.8988 18.4728 23.1685C18.3933 22.9585 17.5325 21.0098 17.4133 20.7828C17.3698 20.7033 17.3149 20.6144 17.2449 20.6277C17.173 20.6409 17.0936 20.6447 17.0406 20.5955C16.9763 20.5368 17.0047 20.4441 17.0709 20.3306C17.3395 19.9125 17.4455 19.5436 17.4587 19.3393C17.4549 19.2579 17.4625 19.186 17.5306 19.1122C17.5893 19.0479 17.6498 19.0668 17.7539 19.1028C18.312 19.3449 20.3079 20.2114 20.8471 20.4744C21.5207 20.8036 23.1855 21.4998 23.3482 21.5131C23.6642 21.5509 23.9253 21.4601 24.0899 21.2804L24.2564 21.1006C24.2961 21.059 24.3566 21.0552 24.3888 21.0855L24.6215 21.2993C24.6745 21.3485 24.6972 21.4071 24.648 21.4601C24.5307 21.5869 23.9839 22.1166 23.4372 22.7069C23.2518 22.9074 22.7088 23.5601 22.582 23.6963C22.5139 23.7701 22.4515 23.7323 22.3985 23.6831L22.1866 23.4882C22.145 23.4485 22.1412 23.388 22.1715 23.3577L22.3361 23.178C22.4723 23.0304 22.4061 22.9112 22.2907 22.8242C22.0826 22.6898 20.9739 22.1961 20.6958 22.075L19.2825 23.6055V23.6036Z" fill="#F3EFE6"/>
<path d="M27.5328 15.3871C27.722 15.3361 27.9604 15.2036 28.0568 15.1431C28.4106 14.9217 28.6244 14.3977 28.5771 13.919C28.545 13.6504 28.4693 13.4782 28.2952 13.1982C27.7768 12.3714 26.8441 12.5322 26.4298 12.7914C26.2955 12.8747 26.2103 12.9277 26.0836 13.0771L27.5309 15.389L27.5328 15.3871ZM25.7771 15.3171C25.4649 14.8177 25.0979 14.235 24.9295 14.0193C24.8406 13.9058 24.7327 13.9228 24.2957 14.1971L24.1254 14.3031C24.0763 14.3333 24.0365 14.3239 24.0063 14.2747L23.8076 13.9587C23.7849 13.9228 23.7944 13.8831 23.8436 13.8528C23.9173 13.8074 24.7782 13.3174 25.1925 13.0582C25.4592 12.8917 25.9247 12.5493 26.1782 12.3885C27.0787 11.8247 27.5082 11.5901 28.2952 11.6033C28.8439 11.6147 29.3509 11.9079 29.6252 12.3468C30.2723 13.3817 29.926 14.5301 28.4901 15.4307C28.1495 15.6444 27.9641 15.7258 27.8052 15.8261L27.966 16.0815C28.195 16.4466 28.7739 17.3718 28.8552 17.472C28.9669 17.6234 29.1296 17.6385 29.3717 17.4872L29.7501 17.2507C29.7993 17.2204 29.8466 17.2412 29.8693 17.2772L30.0604 17.5818C30.0831 17.6177 30.0812 17.6688 30.0206 17.7085C29.9242 17.7691 29.1958 18.1758 28.6471 18.5183C28.1609 18.8247 27.4647 19.3091 27.3795 19.3639C27.3303 19.3942 27.283 19.3734 27.2301 19.2883L27.0693 19.0329C27.039 18.9837 27.0598 18.9364 27.0976 18.9156L27.4136 18.7169C27.6444 18.5712 27.6955 18.4899 27.5763 18.2761C27.5044 18.1342 26.8895 17.0974 26.3257 16.1969L25.7771 15.3209V15.3171Z" fill="#F3EFE6"/>
<path d="M36.4439 10.7139C36.8393 10.5852 37.2782 10.3979 37.3766 10.3355C37.6415 10.1747 37.7153 9.93821 37.632 9.49739C37.6282 9.43875 37.6377 9.41983 37.6926 9.4028L37.9972 9.31955C38.052 9.30253 38.1012 9.31577 38.105 9.37442C38.1182 9.50496 38.3528 10.2296 38.3926 10.3525C38.4909 10.6534 38.6688 11.0639 38.7407 11.2361C38.7577 11.2909 38.735 11.3136 38.6953 11.3269L38.4228 11.4612C38.385 11.4877 38.349 11.4688 38.3188 11.4196C38.0709 11.1225 37.9234 10.9447 37.6093 10.9561C37.1685 10.9939 36.9642 11.0601 36.5952 11.1793L36.7428 11.6296C36.898 12.1082 37.1836 12.8896 37.2404 13.0674C37.4371 13.6691 37.8723 13.5707 38.3926 13.4023C38.9923 13.2074 39.3896 13.0769 39.6601 12.6115C39.7434 12.4942 40.0196 11.7242 40.1407 11.3969C40.1729 11.3117 40.2088 11.2834 40.2599 11.2985L40.5645 11.3496C40.5966 11.3553 40.6364 11.3874 40.6364 11.4328L40.6156 13.0391C40.6099 13.1166 40.5645 13.2074 40.5096 13.2245C40.415 13.2566 39.6772 13.4515 36.7012 14.4183C36.1828 14.5866 35.445 14.8723 35.2804 14.9253C35.2123 14.948 35.1858 14.9102 35.1631 14.842L35.0609 14.528C35.0439 14.4731 35.0609 14.4372 35.1309 14.4145L35.2539 14.3747C35.8952 14.1666 35.9198 14.0985 35.759 13.6066L34.7374 10.4661C34.5955 10.029 34.5255 9.72064 34.3231 9.28739C34.1887 9.01306 34.0885 8.98658 33.5436 9.16442L33.4074 9.20982C33.3658 9.22307 33.343 9.20036 33.3222 9.13226L33.2106 8.79171C33.203 8.76333 33.203 8.71793 33.256 8.7009C33.4603 8.63468 34.2247 8.43225 34.8131 8.23927L37.8666 7.23088C38.0028 7.18548 38.1712 7.10034 38.2261 7.08331C38.2526 7.07385 38.2885 7.09277 38.3699 7.24791C38.438 7.36143 39.2023 8.41144 39.2591 8.49846C39.2912 8.54765 39.2988 8.57603 39.2761 8.59874L39.0888 8.76522C39.0434 8.81063 38.998 8.81063 38.9393 8.76901C38.8674 8.73306 37.9347 8.19008 37.6226 8.06522C37.4315 7.99143 37.1969 8.00846 37.0588 8.05197L35.7117 8.46063L36.4439 10.712V10.7139Z" fill="#F3EFE6"/>
<path d="M45.003 8.29977C44.9652 7.71328 44.8971 6.88273 44.8725 6.73894C44.8271 6.49678 44.7363 6.41732 44.4922 6.43246L44.0476 6.46083C43.9909 6.46462 43.972 6.423 43.9701 6.36624L43.9474 6.00677C43.9455 5.96326 43.972 5.93299 44.0155 5.9311C44.1157 5.92353 44.8498 5.91975 45.7239 5.86488C46.2971 5.82704 47.1258 5.73056 47.2242 5.72299C47.2809 5.7192 47.2979 5.74758 47.3017 5.81948L47.3244 6.1638C47.3263 6.20732 47.3017 6.25083 47.2431 6.25651L47.0293 6.26975C46.4712 6.3057 46.4333 6.39462 46.4314 6.61029C46.439 6.72381 46.5071 7.98571 46.5487 8.63086L46.5998 9.41789C46.6093 9.57492 46.7304 11.4385 46.7777 11.7222C47.1939 11.6958 48.469 11.6276 48.8247 11.5614C49.0499 11.4744 49.7347 10.5095 49.9277 10.1387C49.9655 10.0649 50.0223 10.0309 50.0658 10.0422L50.3174 10.1406C50.3477 10.1538 50.3515 10.2106 50.342 10.2825C50.3326 10.3544 50.0545 11.8395 50.0128 12.0874C49.7688 12.0874 46.5582 12.2822 45.7409 12.3352C45.512 12.3504 45.2131 12.3844 44.9406 12.4014C44.6701 12.4336 44.4544 12.462 44.3825 12.4658C44.3257 12.4695 44.2955 12.4431 44.2879 12.3277L44.269 12.0268C44.2633 11.9549 44.3068 11.9379 44.3636 11.9341L44.8082 11.9058C45.0655 11.8887 45.1866 11.7525 45.1941 11.6371C45.179 11.4082 45.0749 9.34222 45.039 8.79735L45.0068 8.29599L45.003 8.29977Z" fill="#F3EFE6"/>
<path d="M65.1706 11.6127C65.3049 11.6638 65.3693 11.6563 65.409 11.5503L65.5112 11.2817C65.5812 11.0925 65.9501 10.0349 66.005 9.88732C66.0901 9.6584 66.0125 9.46164 65.8366 9.39542L65.5263 9.28001C65.4601 9.25542 65.4431 9.21758 65.462 9.16461L65.5831 8.84109C65.6076 8.77298 65.6455 8.75785 65.7117 8.78055C65.8593 8.83541 66.6766 9.19109 67.0928 9.34623C67.5223 9.50894 68.3434 9.77002 68.4531 9.81353C68.5609 9.85515 68.559 9.89867 68.5174 10.0065L68.4209 10.2619C68.4001 10.3149 68.3717 10.3508 68.2507 10.3054L67.9006 10.173C67.685 10.0916 67.5488 10.2108 67.4882 10.3716C67.4125 10.5741 66.8885 11.9249 66.7712 12.2352L66.6596 12.5303C66.5536 12.8122 65.9595 14.4298 65.9198 14.5376C65.7363 15.0674 65.7666 15.232 66.0485 15.3379L66.4514 15.4893C66.5063 15.5101 66.5044 15.5536 66.4836 15.6085L66.3682 15.9168C66.3417 15.985 66.3058 16.0001 66.2244 15.9717C66.1033 15.9263 65.4336 15.6274 64.8433 15.406C64.4006 15.2395 63.5795 14.9766 63.3638 14.8952C63.2692 14.8593 63.2579 14.8101 63.2844 14.742L63.3998 14.4317C63.4206 14.3768 63.4565 14.3617 63.5247 14.3863L63.9674 14.5528C64.1698 14.6284 64.2701 14.4828 64.3817 14.1876C64.4536 14.0003 64.9587 12.7328 65.0306 12.5455L65.1309 12.2768C65.1668 12.1822 65.1176 12.1482 64.9701 12.0933L62.4311 11.1379C62.3233 11.0981 62.2911 11.1019 62.2665 11.1681L62.2211 11.2892C62.136 11.5181 61.6536 12.8387 61.5627 13.0809C61.419 13.5028 61.4833 13.6182 61.6706 13.6901L61.9922 13.8111C62.0471 13.832 62.0622 13.8679 62.0376 13.936L61.9222 14.2444C61.9014 14.2974 61.8598 14.3276 61.8068 14.3087C61.646 14.2482 60.9081 13.9247 60.4787 13.762C60.036 13.5955 59.1468 13.306 58.9576 13.236C58.8914 13.2114 58.8743 13.1736 58.9046 13.0941L59.02 12.7838C59.0465 12.7176 59.0768 12.7138 59.1581 12.7441L59.5214 12.8803C59.8846 13.0165 59.9792 12.8065 60.0927 12.5436C60.1722 12.3733 60.8135 10.7141 60.893 10.4984L61.0349 10.1219C61.2373 9.58461 61.6044 8.52703 61.6498 8.40595C61.7954 8.01622 61.6933 7.84027 61.4511 7.74756L61.0746 7.60567C60.9933 7.5754 60.9781 7.53945 61.0027 7.47135L61.1144 7.17621C61.1446 7.09675 61.1692 7.07404 61.2619 7.1081C61.4095 7.16296 62.2684 7.53189 62.7244 7.70405C63.222 7.89135 64.0014 8.13919 64.1509 8.19595C64.2322 8.22622 64.2474 8.26406 64.1982 8.39649L64.1074 8.63866C64.0828 8.70487 64.0582 8.72757 63.9636 8.69163L63.6684 8.58001C63.4395 8.49298 63.2503 8.59136 63.1784 8.77866C63.133 8.89974 62.6998 10.0103 62.5579 10.3849L62.5182 10.4927C62.4936 10.5589 62.5049 10.61 62.5844 10.6403L65.1649 11.6108L65.1706 11.6127Z" fill="#F3EFE6"/>
<path d="M75.351 18.3479C76.4842 16.8457 76.2875 15.3662 75.6783 14.9084C75.4607 14.7438 74.9556 14.4354 74.4334 14.5811C73.7428 14.7797 72.9955 15.2962 72.5547 15.8789C71.1793 17.7027 71.7904 19.063 72.2842 19.4338C73.5801 20.4119 74.8837 18.9665 75.351 18.3479ZM70.4698 17.9751C70.2674 17.4095 70.2769 16.157 71.0885 15.0786C71.4442 14.6094 72.042 13.9813 73.0769 13.7543C74.388 13.4478 75.2337 13.8527 76.0585 14.4751C76.6204 14.8989 77.294 15.5327 77.4491 16.4938C77.5872 17.2638 77.4869 18.3024 76.7094 19.3354C76.2931 19.886 75.7558 20.3608 75.0691 20.5803C74.0607 20.9171 73.0618 20.7392 71.868 19.8387C71.4328 19.5095 70.8085 18.9306 70.4698 17.9751Z" fill="#F3EFE6"/>
<path d="M81.8821 21.3179C82.0883 21.1609 82.2132 20.9925 81.9502 20.652L81.7932 20.4458C81.7592 20.4004 81.7648 20.3606 81.8102 20.3247L82.1073 20.0977C82.1413 20.0712 82.1829 20.0768 82.217 20.1222C82.2681 20.1904 82.7921 20.9471 83.2197 21.5071C83.5603 21.9517 84.1089 22.5988 84.16 22.6688C84.2035 22.7255 84.1978 22.7652 84.1411 22.8088L83.8668 23.0188C83.8327 23.0453 83.7816 23.049 83.7457 23.0036L83.6246 22.8447C83.3276 22.4569 83.1194 22.419 83.0192 22.4758C82.8527 22.5666 82.4743 22.875 82.0505 23.1966L81.5946 23.5447C81.2181 23.8323 80.3232 24.5531 80.1624 24.6742C79.8521 24.9296 79.5513 25.2682 79.451 25.6334C79.3318 26.1385 79.5418 26.6285 79.7783 26.9369C80.0394 27.2794 80.4064 27.5234 80.7981 27.5858C81.2975 27.6729 81.7932 27.4231 82.2416 27.0618L83.7873 25.8453C84.3378 25.4064 84.6822 25.1264 84.7919 25.0072C84.9678 24.8369 84.9943 24.6345 84.7162 24.2693L84.6197 24.1445C84.5838 24.099 84.6008 24.0499 84.6595 24.0063L84.9224 23.8058C84.9565 23.7793 85.0076 23.7755 85.0435 23.8209C85.087 23.8777 85.5411 24.5436 85.8097 24.8974C86.0443 25.2058 86.4284 25.6353 86.4814 25.7053C86.5249 25.762 86.5079 25.8112 86.4511 25.8547L86.1995 26.0458C86.1541 26.0818 86.103 26.0837 86.067 26.0383L85.9876 25.9361C85.666 25.5142 85.4654 25.6296 85.3141 25.692C85.2062 25.7393 84.3473 26.4129 84.2224 26.5075C84.1203 26.5869 82.8357 27.531 82.5405 27.7372C81.9124 28.144 81.3221 28.3426 80.6581 28.1799C80.1491 28.0815 79.6326 27.7353 79.0386 26.9596C78.6205 26.4129 78.3878 26.0118 78.2894 25.6712C78.104 25.0015 78.2099 24.502 78.5713 24.029C78.8418 23.6961 79.3053 23.2874 80.2759 22.5477L81.884 21.3198L81.8821 21.3179Z" fill="#F3EFE6"/>
<path d="M85.1094 32.4615C85.1131 32.5069 85.1094 32.5712 85.0242 32.592C84.8653 32.6601 84.6004 32.8058 84.2504 33.1899C83.9799 33.5418 83.9023 34.0904 84.1691 34.711C84.3564 35.1461 84.9239 35.5585 85.4783 35.3202C86.0856 35.0591 86.1745 34.5047 86.0932 33.6969C86.0723 33.3942 86.0648 32.6469 86.2237 32.1096C86.4053 31.5155 86.6948 31.2052 87.4988 30.859C87.9472 30.666 88.4997 30.789 88.9197 30.999C89.3378 31.209 89.6897 31.699 89.9148 32.2269C90.1418 32.7547 90.1683 33.0707 90.157 33.2636C90.1343 33.4301 90.1494 33.502 90.227 33.5001L90.3424 33.5134C90.3935 33.5228 90.4105 33.5626 90.4616 33.6799C90.5183 33.8123 90.471 33.8482 90.4048 33.8766C89.9697 34.0639 89.1637 34.5501 88.984 34.6428C88.9443 34.6599 88.9121 34.658 88.8818 34.6239L88.7153 34.3837C88.6908 34.3628 88.6813 34.3042 88.7286 34.2682C88.878 34.1415 89.2697 33.818 89.4645 33.4358C89.5818 33.1672 89.5894 32.819 89.3681 32.3044C89.0616 31.5931 88.4599 31.648 88.2234 31.7501C88.0532 31.8239 87.9207 31.8807 87.7675 32.0717C87.5878 32.3063 87.6048 32.6734 87.6615 33.2428C87.7107 33.9391 87.7751 34.4915 87.5991 34.9891C87.4288 35.4999 87.1715 35.8139 86.3675 36.1583C85.378 36.5839 84.2561 36.3002 83.645 34.8756C83.3556 34.2039 83.382 33.6439 83.4899 33.239C83.5164 33.118 83.4956 33.0328 83.3783 33.0517L83.2553 33.0574C83.1777 33.0574 83.1229 33.0045 83.0983 32.8758C83.0793 32.7585 83.1153 32.6961 83.1872 32.6809C83.5731 32.5617 84.6685 32.2004 84.8842 32.1228C84.9429 32.1134 84.9939 32.1228 85.0167 32.1758L85.1094 32.4634V32.4615Z" fill="#F3EFE6"/>
<path d="M89.7502 42.0648C89.8221 42.4753 89.9451 42.9351 89.9943 43.0429C90.1172 43.3267 90.3405 43.4345 90.7889 43.4137C90.8475 43.4175 90.8645 43.4289 90.874 43.4856L90.9137 43.7997C90.9232 43.8564 90.9024 43.9037 90.8437 43.9C90.7113 43.8943 89.9621 44.0248 89.8353 44.0475C89.5232 44.1024 89.0918 44.2216 88.9121 44.267C88.8553 44.2764 88.8364 44.25 88.8288 44.2083L88.7342 43.9189C88.7134 43.8791 88.7342 43.8451 88.7891 43.8205C89.1183 43.6181 89.3151 43.497 89.3491 43.1829C89.3737 42.7402 89.3359 42.5302 89.2697 42.148L88.8043 42.2294C88.3086 42.3164 87.4932 42.4867 87.3096 42.5189C86.6872 42.6286 86.7213 43.0732 86.8158 43.6105C86.9256 44.2329 86.9956 44.6435 87.4194 44.9783C87.5234 45.0767 88.248 45.4608 88.5526 45.6254C88.6321 45.6708 88.6548 45.7086 88.634 45.7559L88.5394 46.0492C88.5299 46.0813 88.4921 46.1154 88.4467 46.1097L86.8594 45.8619C86.7837 45.8467 86.7004 45.7881 86.691 45.7313C86.674 45.6329 86.585 44.8762 86.0458 41.7924C85.9512 41.2551 85.7734 40.4851 85.7431 40.3148C85.7318 40.2429 85.7715 40.2221 85.8415 40.2107L86.1669 40.154C86.2237 40.1445 86.2577 40.1672 86.2691 40.2391L86.2918 40.3678C86.4072 41.0318 86.4715 41.064 86.9804 40.9751L90.2345 40.4075C90.6867 40.328 91.0026 40.3015 91.4605 40.1634C91.75 40.0707 91.7916 39.9742 91.6932 39.4086L91.6686 39.2686C91.661 39.225 91.6875 39.2061 91.7575 39.1948L92.1113 39.1323C92.1397 39.1267 92.1851 39.1323 92.1946 39.191C92.2324 39.4029 92.3251 40.188 92.431 40.7972L92.9986 43.9624C93.0232 44.1043 93.0838 44.2821 93.0932 44.3389C93.0989 44.3673 93.0743 44.3994 92.9097 44.4581C92.7867 44.5092 91.6402 45.1165 91.5456 45.1619C91.4908 45.1865 91.4624 45.1902 91.4435 45.1656L91.3054 44.9575C91.2675 44.9065 91.2732 44.861 91.3224 44.8081C91.3697 44.7419 92.0375 43.8962 92.2059 43.6048C92.3062 43.427 92.3232 43.1905 92.2986 43.0486L92.0848 41.658L89.7521 42.0667L89.7502 42.0648Z" fill="#F3EFE6"/>
<path d="M89.8602 55.7814C90.9859 56.0103 91.5175 56.9979 91.3151 57.9836C91.1146 58.9674 90.267 59.6749 89.1129 59.4384C88.044 59.2209 87.5672 58.2446 87.7697 57.259C87.9532 56.3584 88.8178 55.5676 89.8583 55.7814" fill="#F3EFE6"/>
<path d="M15.4132 72.269C15.4719 72.4544 15.6138 72.689 15.68 72.7836C15.9165 73.126 16.4481 73.319 16.9249 73.2528C17.1916 73.2093 17.3619 73.126 17.6343 72.9406C18.4403 72.3882 18.2397 71.463 17.9635 71.0581C17.8746 70.9295 17.816 70.8463 17.6646 70.7233L15.4151 72.2671L15.4132 72.269ZM15.4094 70.5114C15.8957 70.1784 16.4632 69.7887 16.6714 69.6108C16.7811 69.5162 16.7603 69.4103 16.467 68.9846L16.3535 68.8181C16.3213 68.7708 16.3289 68.7311 16.3762 68.697L16.6846 68.4851C16.7205 68.4605 16.7603 68.4681 16.7924 68.5154C16.8416 68.5873 17.3657 69.4292 17.6419 69.8303C17.8197 70.0895 18.1811 70.5398 18.3514 70.7876C18.953 71.6636 19.2046 72.0817 19.2235 72.8706C19.2349 73.4211 18.9643 73.9376 18.5368 74.2309C17.5303 74.9214 16.3668 74.6225 15.4076 73.2263C15.1805 72.8952 15.0897 72.7136 14.9838 72.5584L14.734 72.7287C14.3784 72.9728 13.4797 73.5895 13.3813 73.6747C13.2356 73.792 13.2262 73.9566 13.3889 74.193L13.6405 74.5601C13.6727 74.6074 13.6538 74.6566 13.6178 74.6793L13.3208 74.8817C13.2848 74.9063 13.2337 74.9082 13.1921 74.8495C13.1259 74.7549 12.6908 74.0436 12.3256 73.5101C12.0002 73.0371 11.4856 72.3617 11.4289 72.2784C11.3967 72.2311 11.4156 72.1819 11.4989 72.1252L11.7486 71.9549C11.7959 71.9227 11.8432 71.9417 11.8678 71.9776L12.0797 72.286C12.2348 72.5111 12.3181 72.5565 12.5281 72.4317C12.6662 72.3541 13.6783 71.6957 14.5543 71.0941L15.4076 70.5076L15.4094 70.5114Z" fill="#F3EFE6"/>
<path d="M22.6103 79.958C22.9244 80.2304 23.3122 80.5085 23.4181 80.5615C23.6944 80.7053 23.9346 80.6466 24.2676 80.3477C24.3168 80.3137 24.3357 80.3118 24.3792 80.3496L24.6082 80.5672C24.6517 80.605 24.6649 80.6561 24.6176 80.6883C24.5117 80.7677 24.0122 81.3429 23.929 81.4413C23.7227 81.6796 23.4635 82.0448 23.3519 82.1961C23.3141 82.2396 23.2838 82.2321 23.2498 82.2037L22.9944 82.0391C22.9527 82.0202 22.9489 81.9804 22.9754 81.9294C23.1022 81.5642 23.1779 81.3448 23.0057 81.0818C22.7446 80.7242 22.5838 80.5842 22.2906 80.3288L21.9803 80.6864C21.6511 81.0667 21.1289 81.7156 21.006 81.8575C20.5935 82.3361 20.9 82.6596 21.3143 83.0172C21.7911 83.4297 22.107 83.7021 22.6462 83.6945C22.79 83.704 23.5922 83.5451 23.9327 83.4788C24.0236 83.4618 24.0652 83.4788 24.0803 83.5299L24.1919 83.8156C24.2052 83.8459 24.1976 83.897 24.1579 83.9197L22.7711 84.7313C22.703 84.7672 22.6008 84.7748 22.5573 84.737C22.4816 84.6708 21.933 84.141 19.5662 82.0921C19.1538 81.7345 18.5275 81.2502 18.397 81.1385C18.3421 81.0931 18.3592 81.0496 18.4065 80.9948L18.6221 80.745C18.66 80.7015 18.6997 80.6996 18.7546 80.745L18.853 80.8302C19.3638 81.271 19.4338 81.2558 19.7724 80.8661L21.933 78.3669C22.2338 78.0188 22.4627 77.7993 22.7295 77.4039C22.8941 77.1466 22.8657 77.0482 22.4325 76.6717L22.3246 76.5771C22.2925 76.5488 22.3 76.5185 22.3473 76.4636L22.5819 76.1931C22.6008 76.1704 22.6406 76.1477 22.6841 76.1855C22.8468 76.3255 23.4163 76.8761 23.8836 77.279L26.326 79.3734C26.4339 79.468 26.5947 79.5664 26.6382 79.6042C26.6609 79.6231 26.6628 79.6629 26.572 79.8123C26.5095 79.9277 26.0063 81.1253 25.9609 81.2199C25.9344 81.2729 25.9155 81.2956 25.8833 81.2861L25.643 81.2123C25.5806 81.1972 25.5579 81.1575 25.5617 81.0856C25.556 81.0042 25.539 79.9258 25.4841 79.5947C25.4501 79.3942 25.3119 79.1993 25.2041 79.1047L24.1579 78.1626L22.6084 79.9542L22.6103 79.958Z" fill="#F3EFE6"/>
<path d="M30.7361 83.8343C30.9518 83.3651 30.7399 82.9981 30.3747 82.8297L30.2574 82.7767C30.2045 82.7521 30.1912 82.7143 30.2158 82.6613L30.3653 82.334C30.3842 82.2962 30.4277 82.2678 30.4788 82.2924C30.5053 82.3038 30.6434 82.3832 30.8382 82.4721C31.0274 82.5743 31.2828 82.7067 31.5307 82.8221C31.7388 82.9167 32.0264 83.017 32.1815 83.0889C32.365 83.174 32.4558 83.2459 32.4729 83.3481C32.488 83.4181 33.1956 85.8738 33.3299 86.2673C33.4453 86.6041 33.9826 88.4298 34.0829 88.7287L34.134 88.7514L34.3383 88.3068C34.5899 87.7581 34.8699 87.1452 35.0421 86.7346C35.1859 86.4206 35.4659 85.6335 35.4734 85.4481C35.481 85.2627 35.3334 85.1 35.1253 85.0035L34.904 84.9014C34.8377 84.8711 34.8245 84.8332 34.8548 84.767L35.0042 84.4416C35.0232 84.4038 35.061 84.3886 35.1253 84.417C35.2161 84.4587 35.761 84.7557 36.1772 84.9468C36.4515 85.0716 36.9264 85.2438 37.0172 85.2854C37.0834 85.3157 37.0967 85.3535 37.0551 85.4443L36.9302 85.7187C36.9056 85.7716 36.8621 85.7981 36.8091 85.7735L36.6786 85.7149C36.391 85.5824 36.2851 85.6449 36.1753 85.8151C35.8083 86.3733 35.4583 87.2076 35.2199 87.7298L33.8199 90.7833C33.7367 90.9668 33.625 91.0728 33.4945 91.0122C33.3772 90.9593 33.3072 90.8325 33.2731 90.7379C32.8058 89.4495 32.3934 88.1081 31.9696 86.7914C31.8107 86.3089 31.3055 84.4832 31.2128 84.2032L31.1864 84.19L30.492 85.7035C30.1326 86.4868 29.5744 87.8111 29.5461 87.9398C29.4477 88.2576 29.5253 88.4676 29.722 88.5565L29.9831 88.6757C30.0493 88.706 30.0361 88.7325 30.0134 88.7836L29.8639 89.1109C29.8393 89.1619 29.828 89.1884 29.7636 89.1582C29.6728 89.1165 29.1677 88.8384 28.725 88.636C28.5415 88.5527 27.9361 88.3219 27.832 88.2746C27.8055 88.2633 27.8055 88.2311 27.8396 88.1536L27.9947 87.8149C28.0061 87.7884 28.025 87.7808 28.0647 87.7998L28.3655 87.9379C28.4961 87.9984 28.7325 87.9946 28.9104 87.7127C28.9955 87.5633 29.4458 86.6476 30.1155 85.1851L30.738 83.8286L30.7361 83.8343Z" fill="#F3EFE6"/>
<path d="M42.7062 87.1701C42.5794 87.1512 42.4583 87.1758 42.307 87.312C42.1064 87.4842 41.2816 88.1274 41.0356 88.4093C41.0016 88.4472 40.9543 88.4699 40.8748 88.4131L40.661 88.2939C40.6345 88.275 40.627 88.2296 40.6478 88.1899L41.5275 86.5231C41.5691 86.4417 41.5994 86.4323 41.6562 86.4399C41.6978 86.4455 41.7546 86.455 41.8246 86.4796C42.2692 86.6063 43.603 86.8107 44.4411 86.9374C45.0503 87.0301 45.5213 87.0888 45.8638 87.1266C46.3633 87.1891 46.5789 87.2061 46.6206 87.2137C46.7492 87.2326 46.7511 87.4085 46.63 87.5353C46.49 87.6885 41.7621 92.3956 41.6297 92.5072L44.354 92.9234C44.7967 92.687 45.7181 91.985 45.8732 91.8205C45.9603 91.7315 45.9887 91.7372 46.0397 91.7732L46.2308 91.9472C46.2687 91.9813 46.2762 92.0267 46.2403 92.0796C46.1116 92.2632 45.5043 93.2753 45.317 93.6518C45.2905 93.7218 45.23 93.7407 45.1884 93.7351C45.1184 93.7237 45.0635 93.701 44.8819 93.6443C44.4373 93.5175 42.954 93.247 41.9892 93.0994L39.8607 92.774C39.7756 92.7607 39.664 92.7286 39.6791 92.6302C39.6943 92.5299 39.7624 92.4694 39.8664 92.354C40.277 91.951 44.2803 87.9023 44.6795 87.4691L42.7062 87.1664V87.1701Z" fill="#F3EFE6"/>
<path d="M55.0585 90.4203C54.9771 90.2273 54.2468 88.5227 54.1693 88.3581C54.1087 88.2219 54.0728 88.167 54.0312 88.1727C53.9744 88.1803 53.9536 88.2389 53.9101 88.36C53.8817 88.4792 53.3747 90.4808 53.3217 90.6322L55.0604 90.4184L55.0585 90.4203ZM53.1666 91.16C53.1174 91.3398 52.8147 92.5336 52.792 92.6963C52.756 92.9895 52.8506 93.1674 53.1344 93.1314L53.4201 93.0974C53.492 93.0879 53.526 93.1276 53.5317 93.1844L53.5714 93.5136C53.579 93.5703 53.5714 93.6157 53.4976 93.6252C53.3841 93.6384 52.6236 93.6895 52.3947 93.716C52.1241 93.7501 51.4165 93.8806 51.2879 93.8957C51.2311 93.9033 51.2217 93.8314 51.2141 93.7614L51.1782 93.4757C51.1706 93.419 51.1933 93.3736 51.2519 93.366L51.4241 93.3452C51.5944 93.3244 51.8214 93.1655 51.9444 92.9914C52.0295 92.8647 52.5895 91.0598 52.8298 90.3068C52.9055 90.0949 53.5071 88.0535 53.5639 87.8C53.5828 87.7111 53.5979 87.607 53.5355 87.5711C53.4731 87.5351 53.4087 87.486 53.4012 87.4141C53.3917 87.3289 53.4712 87.2759 53.596 87.2305C54.0709 87.0849 54.3906 86.873 54.5325 86.7254C54.5836 86.6611 54.6347 86.6119 54.735 86.5986C54.8201 86.5873 54.856 86.6422 54.9109 86.7368C55.1814 87.2816 56.1444 89.2322 56.3847 89.7827C56.6855 90.4676 57.5047 92.0757 57.6201 92.1911C57.8377 92.4238 58.095 92.5222 58.3372 92.4938L58.5793 92.4636C58.6361 92.456 58.6853 92.4938 58.6891 92.5374L58.7288 92.8514C58.7364 92.9233 58.7155 92.9838 58.6437 92.9914C58.4734 93.0122 57.7128 93.0633 56.9144 93.1617C56.6439 93.1939 55.8077 93.3414 55.6223 93.3641C55.522 93.3774 55.4993 93.3074 55.4917 93.2355L55.4558 92.9517C55.4482 92.8949 55.4861 92.8457 55.5296 92.842L55.7717 92.8117C55.9704 92.7871 55.9988 92.6528 55.9666 92.5128C55.8947 92.2744 55.3688 91.1827 55.2344 90.9084L53.1666 91.1638V91.16Z" fill="#F3EFE6"/>
<path d="M62.9326 86.2522C62.7207 85.7812 62.3064 85.6998 61.9394 85.8644L61.8221 85.9174C61.7691 85.9401 61.7313 85.9268 61.7086 85.8739L61.561 85.5466C61.544 85.5068 61.5534 85.4558 61.6045 85.4331C61.631 85.4217 61.7804 85.3706 61.9772 85.2817C62.1796 85.206 62.4464 85.102 62.6961 84.9903C62.9042 84.8957 63.1691 84.7463 63.3261 84.6763C63.5097 84.593 63.6251 84.5741 63.714 84.6271C63.7764 84.6611 66.0902 85.749 66.4762 85.9041C66.8054 86.0404 68.5327 86.8387 68.8221 86.9598L68.8751 86.9371L68.6746 86.4925C68.4267 85.942 68.1505 85.3252 67.9557 84.926C67.8138 84.612 67.4089 83.8817 67.2727 83.753C67.1364 83.6263 66.917 83.6301 66.7089 83.7228L66.4856 83.823C66.4194 83.8533 66.3816 83.8382 66.3532 83.7738L66.2056 83.4465C66.1886 83.4068 66.2018 83.369 66.2681 83.3387C66.3589 83.2971 66.9397 83.0833 67.3597 82.896C67.6359 82.773 68.0767 82.5271 68.1675 82.4854C68.2338 82.4571 68.2716 82.4703 68.3132 82.563L68.4362 82.8392C68.4589 82.8903 68.4513 82.9414 68.3984 82.966L68.2678 83.0246C67.9802 83.1533 67.9556 83.2763 68.0124 83.4692C68.1902 84.1125 68.5875 84.926 68.824 85.4501L70.2013 88.515C70.2846 88.6985 70.2903 88.8517 70.1597 88.9104C70.0424 88.9634 69.9005 88.9312 69.8059 88.8971C68.5289 88.4015 67.2481 87.8282 65.9786 87.2796C65.5113 87.0809 63.8048 86.2579 63.5324 86.1425L63.5059 86.1558L64.1889 87.675C64.5426 88.4601 65.1689 89.7523 65.2483 89.8582C65.4224 90.142 65.6324 90.2215 65.8291 90.1326L66.0902 90.0153C66.1564 89.985 66.1678 90.0115 66.1905 90.0644L66.3381 90.3918C66.3608 90.4428 66.374 90.4693 66.3078 90.4996C66.217 90.5412 65.674 90.738 65.2294 90.9385C65.0459 91.0199 64.4745 91.3245 64.3686 91.3718C64.3421 91.3831 64.3175 91.3642 64.2834 91.2847L64.1302 90.9442C64.1189 90.9177 64.1264 90.8988 64.1643 90.8818L64.4651 90.7455C64.5956 90.6869 64.7507 90.5072 64.6543 90.1874C64.5956 90.0247 64.2059 89.0825 63.5456 87.6163L62.9345 86.2541L62.9326 86.2522Z" fill="#F3EFE6"/>
<path d="M77.2598 78.3969C77.2258 78.4442 77.186 78.4215 77.1085 78.3742C76.8285 78.1774 76.4463 77.9939 75.9033 77.9296C75.419 77.8691 74.8798 77.9882 74.3765 78.4158C73.336 79.2993 73.9641 80.5726 74.5411 81.2518C75.0709 81.8761 75.4625 82.315 76.259 82.5459C77.3128 82.8561 77.7782 82.6499 78.2493 82.2507C78.972 81.6377 79.3088 80.881 79.182 80.198C79.1631 80.0637 79.2179 80.0183 79.269 80.0107L79.5566 79.9729C79.619 79.9577 79.6436 80.0315 79.6663 80.1242C79.8725 81.0777 79.5206 82.2621 78.5236 83.1078C77.6041 83.8872 76.7376 84.1313 76.0887 84.0991C75.1238 84.0707 74.2157 83.4672 73.6217 82.7653C73.056 82.0975 72.7381 81.2367 72.776 80.2812C72.7949 79.6815 73.2471 78.658 74.0341 77.9901C74.6906 77.4339 75.3395 77.222 75.6498 77.1653C75.7955 77.1369 75.8712 77.0726 75.8371 77.0082L75.7671 76.8588C75.7501 76.8172 75.7652 76.768 75.8957 76.6563C76.0376 76.5561 76.0793 76.539 76.1625 76.6374C76.2647 76.7585 77.2466 77.6931 77.4812 77.9485C77.5379 77.9939 77.5739 78.0582 77.4868 78.132L77.2617 78.3988L77.2598 78.3969Z" fill="#F3EFE6"/>
<path d="M82.6843 72.9448C82.9208 72.6023 83.1554 72.188 83.197 72.0783C83.3086 71.7888 83.2254 71.5561 82.8924 71.2553C82.8527 71.2118 82.8489 71.191 82.883 71.1437L83.074 70.892C83.1062 70.8448 83.1554 70.8258 83.1951 70.8712C83.284 70.9677 83.9103 71.401 84.0162 71.4748C84.2754 71.6545 84.667 71.874 84.8278 71.9667C84.8751 72.0007 84.8714 72.031 84.8468 72.0669L84.7105 72.3394C84.6973 72.3829 84.6576 72.3904 84.6027 72.3696C84.2262 72.2826 83.9992 72.2315 83.757 72.4302C83.4297 72.7272 83.3067 72.905 83.0854 73.2229L83.4751 73.4934C83.8876 73.7791 84.5895 74.2294 84.7427 74.3372C85.263 74.6967 85.5505 74.3543 85.8608 73.9059C86.2203 73.3856 86.4568 73.0432 86.3906 72.5077C86.3849 72.364 86.1389 71.5845 86.0387 71.2515C86.0122 71.1626 86.0254 71.1191 86.0727 71.1002L86.347 70.9583C86.3754 70.9431 86.4265 70.9431 86.4549 70.9791L87.4122 72.2713C87.4538 72.3356 87.4727 72.4358 87.4406 72.4831C87.3838 72.5664 86.9146 73.1661 85.1343 75.741C84.8241 76.1894 84.4097 76.8629 84.3114 77.0048C84.2697 77.0635 84.2262 77.0502 84.1676 77.0105L83.897 76.8232C83.8497 76.791 83.8422 76.7494 83.8838 76.6908L83.9576 76.5848C84.3416 76.0305 84.3189 75.9624 83.8932 75.6672L81.1765 73.7886C80.7981 73.5275 80.554 73.3232 80.1321 73.1018C79.8597 72.9656 79.7632 73.0034 79.4378 73.4764L79.3564 73.5937C79.3318 73.6296 79.2997 73.624 79.241 73.5842L78.9459 73.3799C78.9213 73.3629 78.8948 73.3269 78.927 73.2796C79.0499 73.1037 79.5343 72.4775 79.8862 71.9704L81.7043 69.3161C81.7856 69.1988 81.8689 69.0285 81.9011 68.9812C81.9181 68.9566 81.9578 68.9491 82.1148 69.0247C82.2378 69.0758 83.4808 69.4466 83.5811 69.4807C83.6359 69.5015 83.6605 69.5185 83.6549 69.5488L83.6057 69.7947C83.5962 69.8591 83.5603 69.8856 83.4884 69.8893C83.4089 69.9045 82.34 70.0369 82.0146 70.1277C81.8197 70.1845 81.64 70.3396 81.5586 70.4588L80.7356 71.5996L82.6843 72.9467V72.9448Z" fill="#F3EFE6"/>
<path d="M74.8611 49.5C78.9004 44.8705 80.395 39.6791 79.3431 37.1383C78.0433 33.9996 72.4717 31.9393 67.4335 31.5552C67.0154 25.4311 64.4008 20.7089 61.8599 19.657C61.3302 19.4376 60.6888 19.3259 59.9548 19.3259C57.3799 19.3259 54.0406 20.6559 51.023 22.8846C50.5349 23.2441 50.0128 23.6603 49.4698 24.1371C45.7257 20.9 41.6411 19.3448 38.9508 19.3448C38.247 19.3448 37.6359 19.4489 37.1383 19.657C34.5975 20.7089 31.9847 25.4311 31.5647 31.5552C26.5266 31.9374 20.9568 33.9996 19.657 37.1383C18.8113 39.1778 19.727 42.9332 21.9368 46.4843C22.5952 47.5419 23.3425 48.5503 24.1673 49.5C23.3425 50.4498 22.5952 51.4582 21.9368 52.5157C19.7289 56.0669 18.8132 59.8223 19.657 61.8618C20.9568 65.0005 26.5285 67.0608 31.5647 67.4448C31.9828 73.5689 34.5975 78.2912 37.1383 79.3431C37.668 79.5625 38.3094 79.6742 39.0453 79.6742C41.6202 79.6742 44.9576 78.3441 47.9771 76.1155C48.4652 75.756 48.9873 75.3398 49.5322 74.863C53.2763 78.1001 57.361 79.6552 60.0513 79.6552C60.755 79.6552 61.3661 79.5512 61.8637 79.3431C63.9902 78.4633 65.9748 75.2282 66.9208 71.1038C67.1951 69.9081 67.3711 68.684 67.4543 67.4429C72.4868 67.057 78.0471 64.9967 79.345 61.8618C80.3969 59.321 78.9023 54.1296 74.863 49.5H74.8611ZM67.477 32.4066C72.2408 32.7926 77.4285 34.7261 78.5617 37.4618C79.3923 39.4653 78.1266 44.3711 74.2822 48.8606C72.0819 46.5089 69.2043 44.3484 65.6551 42.8121C67.0835 39.2043 67.5867 35.6342 67.477 32.4085V32.4066ZM55.732 64.5445C53.0625 63.3205 51.0722 61.1845 49.9768 58.6626C49.659 58.6796 49.343 58.6796 49.029 58.6626C47.89 61.2867 45.8619 63.3564 43.2681 64.5445C42.2729 61.8713 42.3032 58.9728 43.3532 56.3128C43.1243 56.1066 42.903 55.8852 42.6948 55.6544C41.3724 56.1747 39.9402 56.4566 38.457 56.4566C37.0872 56.4566 35.7421 56.2107 34.4537 55.732C35.6607 53.0966 37.7759 51.0703 40.3375 49.9598C40.3224 49.6514 40.3224 49.3449 40.3375 49.0403C37.7759 47.9298 35.6626 45.9054 34.4537 43.27C35.744 42.7894 37.0872 42.5454 38.4589 42.5454C39.9421 42.5454 41.3724 42.8273 42.6948 43.3475C42.903 43.1167 43.1262 42.8954 43.3589 42.6854C42.3505 40.1275 42.2484 37.2102 43.27 34.4556C45.8638 35.6437 47.8919 37.7134 49.0309 40.3375C49.3487 40.3205 49.6647 40.3205 49.9787 40.3375C51.0741 37.8156 53.0644 35.6796 55.7339 34.4574C56.7272 37.1307 56.6988 40.0291 55.6488 42.6892C55.8796 42.8973 56.099 43.1167 56.3072 43.3475C57.6296 42.8273 59.0618 42.5454 60.545 42.5454C61.9148 42.5454 63.2599 42.7913 64.5502 43.27C63.3432 45.9054 61.228 47.9316 58.6664 49.0403C58.6815 49.3487 58.6815 49.6552 58.6664 49.9598C61.228 51.0703 63.3413 53.0947 64.5502 55.732C63.2599 56.2125 61.9167 56.4566 60.545 56.4566C59.0618 56.4566 57.6296 56.1747 56.3072 55.6544C56.099 55.8834 55.8796 56.1028 55.6488 56.3128C56.6988 58.9728 56.7272 61.8713 55.7339 64.5445H55.732ZM33.6704 55.4123C29.9131 53.7852 27.1925 51.5414 25.3063 49.5C27.1925 47.4587 29.915 45.2149 33.6704 43.5878C34.8585 46.1986 36.8734 48.2552 39.331 49.5C36.8734 50.7449 34.8585 52.8014 33.6704 55.4123ZM59.6691 49.5C62.1248 48.2552 64.1397 46.2005 65.3278 43.5916C68.8486 45.1146 71.6222 47.2316 73.7146 49.5C71.6222 51.7703 68.8486 53.8855 65.3278 55.4104C64.1397 52.7995 62.1267 50.7449 59.6691 49.5ZM64.8737 42.4886C63.4794 41.9664 62.0264 41.6978 60.5431 41.6978C59.2037 41.6978 57.9039 41.9135 56.6799 42.3127C57.5615 39.6375 57.5047 36.7769 56.5096 34.1245C59.5083 32.9363 62.6205 32.3328 65.7724 32.3328C66.0524 32.3328 66.3381 32.3404 66.6238 32.3517C66.7524 35.4431 66.2908 38.911 64.8737 42.4867V42.4886ZM59.9548 20.1697C60.5791 20.1697 61.1107 20.2586 61.5364 20.4365C63.538 21.2651 66.1129 25.6222 66.5708 31.5061C66.3021 31.4966 66.0335 31.489 65.7705 31.489C62.5107 31.489 59.2888 32.1134 56.188 33.3431C54.6347 29.7541 52.459 26.886 50.1036 24.7027C53.6339 21.6416 57.4442 20.1678 59.9529 20.1678L59.9548 20.1697ZM49.4849 25.2627C51.7722 27.376 53.895 30.1685 55.4123 33.6723C52.7617 34.8793 50.7317 36.9207 49.5038 39.3556C48.2363 36.8337 46.1722 34.8453 43.5897 33.6723C45.1051 30.1685 47.2146 27.3779 49.4849 25.2627ZM37.4618 20.4365C37.8572 20.2719 38.3586 20.1886 38.9508 20.1886C41.4783 20.1886 45.3076 21.653 48.8492 24.6971C46.7681 26.6476 44.4846 29.4552 42.8065 33.3431C39.7075 32.1134 36.4875 31.489 33.2277 31.489C32.9439 31.489 32.6545 31.4966 32.3631 31.5079C32.7888 25.6014 35.3921 21.2935 37.4618 20.4365ZM32.3177 32.3555C32.6242 32.3423 32.9269 32.3347 33.2258 32.3347C36.3759 32.3347 39.4899 32.9382 42.4886 34.1264C41.467 36.8507 41.4746 39.7283 42.3259 42.3164C41.1 41.9154 39.7964 41.6997 38.4551 41.6997C36.9718 41.6997 35.5169 41.9683 34.1245 42.4905C32.6942 38.8845 32.2099 35.4261 32.3177 32.3574V32.3555ZM22.6538 46.0378C20.2757 42.2124 19.8368 38.9091 20.4384 37.4599C21.5716 34.7242 26.7593 32.7907 31.5231 32.4047C31.4134 35.6304 31.9166 39.2024 33.345 42.8083C30.0607 44.2311 27.1131 46.3141 24.7406 48.8625C23.823 47.7954 23.1363 46.8116 22.6538 46.0359V46.0378ZM31.5212 66.5916C26.7574 66.2056 21.5697 64.2721 20.4365 61.5364C19.8368 60.0872 20.2738 56.7858 22.6519 52.9603C23.1344 52.1847 23.8192 51.2009 24.7387 50.1338C27.1112 52.6822 30.0588 54.7652 33.3431 56.1879C31.9147 59.7939 31.4115 63.3659 31.5212 66.5916ZM34.1264 56.5096C35.5207 57.0317 36.9737 57.3004 38.457 57.3004C39.7964 57.3004 41.0962 57.0847 42.3202 56.6855C41.4386 59.3607 41.4954 62.2213 42.4905 64.8737C39.4918 66.0618 36.3796 66.6654 33.2296 66.6654C32.9496 66.6654 32.6639 66.6578 32.3782 66.6464C32.2496 63.5551 32.7112 60.0872 34.1283 56.5115L34.1264 56.5096ZM39.0453 78.8285C38.421 78.8285 37.8894 78.7395 37.4618 78.5617C35.4602 77.733 32.8853 73.376 32.4274 67.4921C32.6961 67.5016 32.9647 67.5092 33.2296 67.5092C36.4894 67.5092 39.7113 66.8848 42.8121 65.6551C44.3654 69.244 46.5411 72.1122 48.8965 74.2954C45.3681 77.3566 41.5559 78.8304 39.0472 78.8304L39.0453 78.8285ZM49.5152 73.7354C47.2279 71.6222 45.1051 68.8316 43.5878 65.3259C46.1703 64.151 48.2363 62.1626 49.5019 59.6426C50.7298 62.0775 52.7598 64.1207 55.4104 65.3259C53.895 68.8297 51.7855 71.6222 49.5133 73.7354H49.5152ZM66.0959 70.9146C65.0875 75.3114 63.0802 77.9241 61.5383 78.5617C61.1429 78.7263 60.6415 78.8077 60.0494 78.8077C57.5218 78.8077 53.6925 77.3433 50.1509 74.2992C52.232 72.3487 54.5155 69.5411 56.1936 65.6551C59.2926 66.8848 62.5126 67.5092 65.7724 67.5092C66.0448 67.5092 66.321 67.5016 66.5992 67.4921C66.5159 68.6519 66.3494 69.7965 66.094 70.9146H66.0959ZM66.6446 66.6446C66.3513 66.6578 66.06 66.6654 65.7724 66.6654C62.6224 66.6654 59.5083 66.0618 56.5096 64.8737C57.5047 62.2213 57.5615 59.3626 56.6799 56.6855C57.9039 57.0866 59.2037 57.3004 60.5431 57.3004C62.0245 57.3004 63.4775 57.0336 64.8718 56.5115C66.1659 59.7826 66.7675 63.2618 66.6465 66.6446H66.6446ZM78.5617 61.5383C77.4304 64.2702 72.2503 66.2018 67.4921 66.5916C67.6038 63.1142 66.9794 59.5461 65.6513 56.1898C69.2043 54.6536 72.0819 52.493 74.2822 50.1395C78.1266 54.6271 79.3923 59.5347 78.5617 61.5383Z" fill="#F3EFE6"/>
<path d="M49.4964 43.779C48.7453 43.779 48.0093 43.9265 47.3093 44.216C44.3958 45.423 43.0071 48.7755 44.2141 51.6891C45.1033 53.8345 47.1788 55.2213 49.502 55.2213C50.2531 55.2213 50.9891 55.0737 51.6891 54.7842C53.1005 54.1996 54.1997 53.1004 54.7843 51.6891C55.3689 50.2777 55.3689 48.7225 54.7843 47.3112C53.8951 45.1657 51.8196 43.779 49.4983 43.779M49.5001 56.0651C46.8344 56.0651 44.4525 54.474 43.4328 52.0107C42.0479 48.6658 43.6409 44.8195 46.9858 43.4328C47.788 43.0998 48.6336 42.9314 49.4964 42.9314C52.1621 42.9314 54.544 44.5225 55.5637 46.9858C56.2354 48.6052 56.2354 50.3893 55.5637 52.0107C54.8921 53.6302 53.6302 54.8921 52.0107 55.5637C51.2066 55.8967 50.3629 56.0651 49.5001 56.0651Z" fill="#F3EFE6"/>
</svg>
