<svg width="900" height="500" viewBox="0 0 900 500" fill="none" xmlns="http://www.w3.org/2000/svg">
<rect width="900" height="500" fill="#FEFEFE"/>
<g clip-path="url(#clip0_1314_2215)">
<rect width="554" height="226" transform="translate(173 137)" fill="#FEFEFE"/>
<path d="M427.226 351.85C414.67 360.082 398.904 363.001 384.218 363.001C348.426 363.001 319.039 337.257 319.039 298.239C319.039 259.22 348.426 234.285 384.218 234.285C419.741 234.285 448.048 260.283 448.048 299.301C448.02 302.327 446.801 305.22 444.654 307.357C442.507 309.493 439.604 310.702 436.572 310.721H357.875C356.97 310.721 356.266 311.521 356.458 312.404C359.3 325.524 374.318 331.151 386.889 331.151C394.389 331.151 400.779 330.612 408.52 325.314C417.071 319.477 426.686 321.063 432.027 327.17C438.972 335.117 436.302 346.537 427.226 351.85ZM409.028 287.627C409.93 287.627 410.63 286.836 410.477 285.949C408.059 271.947 397.901 265.072 384.548 265.072C371.214 265.072 360.816 271.444 357.176 285.836C356.944 286.754 357.655 287.627 358.605 287.627H409.028Z" fill="#035259"/>
<path d="M563.192 351.85C550.636 360.082 534.87 363.001 520.184 363.001C484.391 363.001 455.02 337.257 455.02 298.239C455.02 259.22 484.391 234.285 520.184 234.285C555.706 234.285 584.028 260.283 584.028 299.301C584 302.332 582.778 305.23 580.624 307.367C578.471 309.504 575.56 310.709 572.522 310.721H493.854C492.949 310.721 492.246 311.52 492.436 312.403C495.265 325.524 510.297 331.151 522.854 331.151C530.355 331.151 536.745 330.612 544.485 325.314C553.036 319.477 562.652 321.063 567.992 327.17C574.937 335.117 572.267 346.537 563.192 351.85ZM544.994 287.627C545.895 287.627 546.595 286.836 546.443 285.949C544.026 271.947 533.881 265.072 520.514 265.072C507.165 265.072 496.78 271.444 493.141 285.836C492.909 286.754 493.621 287.627 494.57 287.627H544.994Z" fill="#035259"/>
<path d="M708.625 160.945H707.875C705.461 160.943 703.071 161.416 700.84 162.337C698.61 163.258 696.583 164.608 694.877 166.311C693.17 168.014 691.816 170.036 690.893 172.261C689.971 174.486 689.497 176.872 689.499 179.28V239.946C689.499 241.086 688.269 241.812 687.249 241.299C677.93 236.615 667.615 234.204 657.157 234.283C621.379 234.283 591.992 259.233 591.992 298.237C591.992 337.24 621.379 362.999 657.157 362.999C668.568 362.999 680.595 361.221 691.291 356.542C692.598 355.97 694.124 356.349 695.129 357.361C696.602 358.845 698.313 360.08 700.198 361.014C702.817 362.312 705.7 362.991 708.625 362.999C713.497 362.995 718.169 361.062 721.615 357.624C725.06 354.187 726.997 349.525 727.001 344.664V179.28C727.001 174.417 725.065 169.754 721.619 166.315C718.173 162.877 713.499 160.945 708.625 160.945ZM689.499 322.588C689.499 325.894 686.812 328.575 683.498 328.575H659.347C655.425 328.575 651.542 327.804 647.919 326.306C644.297 324.808 641.005 322.613 638.233 319.846C635.461 317.079 633.262 313.793 631.763 310.178C630.263 306.563 629.493 302.688 629.495 298.775V298.491C629.495 290.592 632.64 283.016 638.238 277.431C643.836 271.845 651.429 268.707 659.347 268.707H659.647C667.564 268.707 675.157 271.845 680.755 277.431C686.354 283.016 689.499 290.592 689.499 298.491V322.588Z" fill="#035259"/>
<path d="M239.982 362.258C237.072 362.258 234.132 362.123 231.252 361.854C209.485 359.938 191.334 352.095 178.748 339.149C176.325 336.655 174.598 333.572 173.74 330.205C172.883 326.839 172.923 323.307 173.858 319.962C174.997 315.768 177.486 312.065 180.942 309.423C184.399 306.78 188.63 305.345 192.984 305.339C198.64 305.339 203.485 308.332 207.85 312.179C216.296 319.468 225.776 324.841 239.352 324.841C246.628 324.841 254.158 323.598 258.959 320.351C265.574 315.861 269.264 309.769 269.264 301.986C269.264 293.844 264.299 283.427 243.298 276.004C243.298 276.004 227.892 270.241 218.381 266.23C210.64 262.99 203.309 258.851 196.539 253.898C188.079 247.582 183.399 242.807 178.883 234.351C174.303 225.232 172.335 215.029 173.198 204.866C174.13 192.568 178.78 180.841 186.534 171.235C186.838 170.844 187.263 170.565 187.743 170.44C188.223 170.315 188.731 170.352 189.188 170.545C189.645 170.738 190.025 171.076 190.269 171.507C190.514 171.937 190.609 172.437 190.539 172.927C189.219 182.086 190.659 194.374 194.139 202.022C198.43 211.422 207.13 218.636 215.921 223.739C223.698 228.191 231.899 231.861 240.402 234.695C256.318 240.023 263.954 242.897 269.744 245.606C284.205 252.341 294.841 260.767 302.747 272.277C309.482 282.17 312.362 293.949 310.712 308.003C308.972 325.05 300.961 339.059 287.551 348.563C275.04 357.349 258.149 362.228 239.982 362.258Z" fill="#035259"/>
<path d="M270.403 191.485L250.121 184.076C249.541 183.861 249.07 183.425 248.812 182.864C248.553 182.303 248.528 181.663 248.741 181.083C250.136 177.173 252.294 173.576 255.089 170.502C257.885 167.428 261.263 164.937 265.029 163.172C268.794 161.408 272.873 160.405 277.029 160.222C281.185 160.039 285.337 160.679 289.244 162.105L309.525 169.589C309.814 169.694 310.078 169.855 310.304 170.062C310.53 170.27 310.712 170.52 310.84 170.798C310.969 171.077 311.041 171.378 311.052 171.684C311.063 171.99 311.013 172.295 310.905 172.582C309.503 176.486 307.34 180.074 304.541 183.14C301.743 186.206 298.363 188.689 294.598 190.447C290.833 192.204 286.757 193.2 282.605 193.378C278.452 193.557 274.305 192.913 270.403 191.485Z" fill="#035259"/>
<path d="M226.869 184.871L201.758 191.621C201.448 191.711 201.124 191.739 200.804 191.701C200.484 191.664 200.175 191.562 199.895 191.403C199.615 191.244 199.37 191.03 199.174 190.774C198.979 190.519 198.837 190.226 198.758 189.915C196.143 180.238 197.479 169.922 202.473 161.225C207.466 152.529 215.71 146.162 225.399 143.517L249.236 137.097C249.545 137.006 249.87 136.979 250.19 137.016C250.51 137.054 250.819 137.155 251.099 137.314C251.379 137.473 251.624 137.687 251.819 137.943C252.015 138.199 252.156 138.491 252.236 138.803L252.581 140.105C255.107 149.443 253.819 159.399 249 167.79C244.18 176.182 236.221 182.324 226.869 184.871Z" fill="#035259"/>
</g>
<defs>
<clipPath id="clip0_1314_2215">
<rect width="554" height="226" fill="white" transform="translate(173 137)"/>
</clipPath>
</defs>
</svg>
