<svg width="600" height="270" viewBox="0 0 600 270" fill="none" xmlns="http://www.w3.org/2000/svg">
<rect width="600" height="270" fill="#035259"/>
<path d="M289.112 184.213C283.081 188.167 275.508 189.569 268.454 189.569C251.262 189.569 237.146 177.202 237.146 158.458C237.146 139.713 251.262 127.734 268.454 127.734C285.517 127.734 299.114 140.224 299.114 158.968C299.1 160.422 298.515 161.812 297.484 162.838C296.452 163.864 295.058 164.445 293.601 164.454H255.801C255.366 164.454 255.028 164.838 255.12 165.263C256.485 171.566 263.699 174.269 269.737 174.269C273.34 174.269 276.409 174.01 280.127 171.465C284.234 168.661 288.853 169.423 291.418 172.356C294.754 176.174 293.472 181.66 289.112 184.213ZM280.371 153.36C280.804 153.36 281.141 152.98 281.067 152.554C279.906 145.827 275.027 142.524 268.613 142.524C262.208 142.524 257.213 145.586 255.465 152.499C255.353 152.941 255.695 153.36 256.151 153.36H280.371Z" fill="#F7F5EB"/>
<path d="M354.422 184.213C348.391 188.167 340.818 189.569 333.764 189.569C316.571 189.569 302.463 177.202 302.463 158.458C302.463 139.713 316.571 127.734 333.764 127.734C350.826 127.734 364.43 140.224 364.43 158.968C364.417 160.424 363.829 161.816 362.795 162.843C361.761 163.87 360.362 164.449 358.903 164.454H321.116C320.682 164.454 320.344 164.838 320.435 165.262C321.794 171.565 329.015 174.269 335.046 174.269C338.649 174.269 341.718 174.01 345.436 171.465C349.544 168.661 354.162 169.423 356.727 172.356C360.064 176.174 358.781 181.66 354.422 184.213ZM345.68 153.36C346.113 153.36 346.45 152.98 346.376 152.554C345.216 145.827 340.343 142.524 333.922 142.524C327.51 142.524 322.522 145.586 320.774 152.499C320.663 152.941 321.004 153.36 321.46 153.36H345.68Z" fill="#F7F5EB"/>
<path d="M424.279 92.5078H423.918C422.759 92.5069 421.611 92.734 420.539 93.1763C419.468 93.6186 418.495 94.2674 417.675 95.0855C416.855 95.9035 416.205 96.8749 415.761 97.944C415.318 99.013 415.091 100.159 415.092 101.316V130.46C415.092 131.008 414.501 131.356 414.011 131.11C409.535 128.86 404.58 127.702 399.556 127.739C382.371 127.739 368.256 139.725 368.256 158.463C368.256 177.2 382.371 189.574 399.556 189.574C405.038 189.574 410.815 188.72 415.952 186.473C416.58 186.198 417.313 186.38 417.796 186.866C418.503 187.579 419.325 188.172 420.231 188.621C421.489 189.244 422.874 189.571 424.279 189.574C426.619 189.572 428.863 188.644 430.518 186.992C432.173 185.341 433.103 183.102 433.105 180.766V101.316C433.105 98.9797 432.175 96.7394 430.52 95.0876C428.865 93.4358 426.62 92.5078 424.279 92.5078ZM415.092 170.161C415.092 171.749 413.801 173.037 412.209 173.037H400.608C398.725 173.037 396.86 172.667 395.12 171.947C393.379 171.228 391.798 170.173 390.467 168.844C389.135 167.514 388.079 165.936 387.359 164.199C386.639 162.463 386.269 160.601 386.27 158.722V158.585C386.27 154.79 387.78 151.151 390.469 148.467C393.158 145.784 396.806 144.277 400.608 144.277H400.753C404.556 144.277 408.203 145.784 410.892 148.467C413.581 151.151 415.092 154.79 415.092 158.585V170.161Z" fill="#F7F5EB"/>
<path d="M199.174 189.216C197.776 189.216 196.364 189.151 194.98 189.022C184.525 188.101 175.806 184.334 169.761 178.114C168.597 176.916 167.768 175.435 167.356 173.818C166.944 172.201 166.963 170.504 167.412 168.896C167.959 166.882 169.155 165.103 170.815 163.834C172.475 162.564 174.508 161.875 176.599 161.872C179.316 161.872 181.643 163.31 183.74 165.158C187.796 168.659 192.35 171.24 198.871 171.24C202.366 171.24 205.983 170.644 208.289 169.083C211.466 166.926 213.239 164 213.239 160.261C213.239 156.35 210.854 151.345 200.766 147.779C200.766 147.779 193.366 145.011 188.798 143.084C185.08 141.527 181.558 139.539 178.307 137.159C174.243 134.125 171.995 131.831 169.826 127.769C167.626 123.389 166.681 118.487 167.095 113.605C167.543 107.696 169.776 102.063 173.501 97.4483C173.647 97.2605 173.851 97.1262 174.082 97.0661C174.312 97.0061 174.556 97.0239 174.776 97.1166C174.995 97.2092 175.178 97.3717 175.295 97.5786C175.412 97.7855 175.458 98.0254 175.425 98.2608C174.791 102.661 175.482 108.564 177.154 112.238C179.215 116.754 183.394 120.219 187.616 122.671C191.352 124.81 195.291 126.573 199.376 127.934C207.021 130.494 210.688 131.875 213.47 133.176C220.416 136.412 225.524 140.46 229.322 145.989C232.557 150.741 233.94 156.4 233.148 163.152C232.312 171.341 228.464 178.071 222.022 182.637C216.013 186.857 207.9 189.201 199.174 189.216Z" fill="#F7F5EB"/>
<path d="M213.786 107.174L204.044 103.615C203.766 103.512 203.54 103.302 203.415 103.033C203.291 102.763 203.279 102.455 203.381 102.177C204.052 100.298 205.088 98.5708 206.431 97.094C207.773 95.6172 209.396 94.4204 211.205 93.5727C213.014 92.7251 214.973 92.2434 216.969 92.1553C218.966 92.0673 220.96 92.3748 222.836 93.0599L232.578 96.655C232.717 96.7055 232.844 96.7828 232.952 96.8825C233.061 96.9823 233.148 97.1025 233.21 97.2362C233.271 97.3699 233.306 97.5144 233.311 97.6615C233.317 97.8086 233.293 97.9552 233.241 98.093C232.567 99.9684 231.528 101.692 230.184 103.165C228.84 104.638 227.217 105.831 225.408 106.675C223.6 107.519 221.642 107.998 219.647 108.084C217.653 108.169 215.661 107.86 213.786 107.174Z" fill="#F7F5EB"/>
<path d="M192.876 103.997L180.814 107.24C180.665 107.283 180.509 107.296 180.356 107.278C180.202 107.261 180.053 107.212 179.919 107.135C179.784 107.059 179.667 106.956 179.573 106.833C179.479 106.71 179.411 106.57 179.373 106.42C178.117 101.771 178.759 96.8156 181.157 92.6379C183.556 88.4602 187.516 85.4013 192.17 84.1309L203.619 81.0464C203.768 81.003 203.923 80.9898 204.077 81.0078C204.231 81.0258 204.379 81.0745 204.514 81.151C204.648 81.2275 204.766 81.3302 204.86 81.453C204.954 81.5759 205.022 81.7163 205.06 81.866L205.226 82.4916C206.439 86.9774 205.821 91.7604 203.506 95.7917C201.19 99.8231 197.368 102.774 192.876 103.997Z" fill="#F7F5EB"/>
</svg>
